<mxfile host="app.diagrams.net" agent="Mozilla/5.0 (Macintosh; Intel Mac OS X 10_15_7) AppleWebKit/605.1.15 (KHTML, like Gecko) Version/16.6 Safari/605.1.15" version="24.7.17">
  <diagram name="Page-1" id="wM1payCSYXfOGqNj-sEZ">
    <mxGraphModel dx="954" dy="647" grid="1" gridSize="10" guides="1" tooltips="1" connect="1" arrows="0" fold="1" page="1" pageScale="1" pageWidth="1654" pageHeight="1169" math="0" shadow="0">
      <root>
        <mxCell id="0" />
        <mxCell id="1" parent="0" />
        <mxCell id="lA_nZtJsFJba0ltW-i-2-1" value="" style="shape=internalStorage;whiteSpace=wrap;html=1;backgroundOutline=1;" vertex="1" parent="1">
          <mxGeometry x="90" y="160" width="210" height="440" as="geometry" />
        </mxCell>
        <mxCell id="lA_nZtJsFJba0ltW-i-2-2" value="" style="shape=internalStorage;whiteSpace=wrap;html=1;backgroundOutline=1;" vertex="1" parent="1">
          <mxGeometry x="300" y="160" width="210" height="440" as="geometry" />
        </mxCell>
        <mxCell id="lA_nZtJsFJba0ltW-i-2-3" value="" style="shape=internalStorage;whiteSpace=wrap;html=1;backgroundOutline=1;" vertex="1" parent="1">
          <mxGeometry x="510" y="160" width="210" height="440" as="geometry" />
        </mxCell>
        <mxCell id="lA_nZtJsFJba0ltW-i-2-4" value="&lt;div style=&quot;&quot;&gt;&lt;br&gt;&lt;/div&gt;" style="shape=internalStorage;whiteSpace=wrap;html=1;backgroundOutline=1;align=center;" vertex="1" parent="1">
          <mxGeometry x="722" y="160" width="210" height="440" as="geometry" />
        </mxCell>
        <mxCell id="lA_nZtJsFJba0ltW-i-2-5" value="" style="shape=internalStorage;whiteSpace=wrap;html=1;backgroundOutline=1;" vertex="1" parent="1">
          <mxGeometry x="932" y="160" width="210" height="440" as="geometry" />
        </mxCell>
        <mxCell id="lA_nZtJsFJba0ltW-i-2-6" value="Inbound Logistic" style="text;html=1;align=center;verticalAlign=middle;whiteSpace=wrap;rounded=0;" vertex="1" parent="1">
          <mxGeometry x="143" y="155" width="115" height="30" as="geometry" />
        </mxCell>
        <mxCell id="lA_nZtJsFJba0ltW-i-2-7" value="Operation/Manufacture" style="text;html=1;align=center;verticalAlign=middle;whiteSpace=wrap;rounded=0;" vertex="1" parent="1">
          <mxGeometry x="360" y="155" width="115" height="30" as="geometry" />
        </mxCell>
        <mxCell id="lA_nZtJsFJba0ltW-i-2-8" value="Outbound Logistic" style="text;html=1;align=center;verticalAlign=middle;whiteSpace=wrap;rounded=0;" vertex="1" parent="1">
          <mxGeometry x="557.5" y="155" width="115" height="30" as="geometry" />
        </mxCell>
        <mxCell id="lA_nZtJsFJba0ltW-i-2-9" value="Marketing/Sale" style="text;html=1;align=center;verticalAlign=middle;whiteSpace=wrap;rounded=0;" vertex="1" parent="1">
          <mxGeometry x="770" y="155" width="115" height="30" as="geometry" />
        </mxCell>
        <mxCell id="lA_nZtJsFJba0ltW-i-2-11" value="Customer Service" style="text;html=1;align=center;verticalAlign=middle;whiteSpace=wrap;rounded=0;" vertex="1" parent="1">
          <mxGeometry x="979.5" y="155" width="115" height="30" as="geometry" />
        </mxCell>
        <mxCell id="lA_nZtJsFJba0ltW-i-2-12" value="Khung thép" style="rounded=1;whiteSpace=wrap;html=1;fillColor=#e1d5e7;strokeColor=#9673a6;" vertex="1" parent="1">
          <mxGeometry x="147.5" y="200" width="95" height="30" as="geometry" />
        </mxCell>
        <mxCell id="lA_nZtJsFJba0ltW-i-2-13" value="&lt;font style=&quot;font-size: 11px;&quot;&gt;Màn hình máy tính&lt;/font&gt;" style="rounded=1;whiteSpace=wrap;html=1;fillColor=#dae8fc;strokeColor=#6c8ebf;" vertex="1" parent="1">
          <mxGeometry x="147.5" y="240" width="95" height="30" as="geometry" />
        </mxCell>
        <mxCell id="lA_nZtJsFJba0ltW-i-2-14" value="&lt;span style=&quot;font-size: 11px;&quot;&gt;Bình nước&lt;/span&gt;" style="rounded=1;whiteSpace=wrap;html=1;fillColor=#d5e8d4;strokeColor=#82b366;" vertex="1" parent="1">
          <mxGeometry x="146.25" y="340" width="95" height="30" as="geometry" />
        </mxCell>
        <mxCell id="lA_nZtJsFJba0ltW-i-2-15" value="&lt;span style=&quot;font-size: 11px;&quot;&gt;Các loại nước&amp;nbsp;&lt;/span&gt;" style="rounded=1;whiteSpace=wrap;html=1;fillColor=#f8cecc;strokeColor=#b85450;" vertex="1" parent="1">
          <mxGeometry x="136.25" y="530" width="92.5" height="50" as="geometry" />
        </mxCell>
        <mxCell id="lA_nZtJsFJba0ltW-i-2-16" value="Database thô trạm" style="ellipse;whiteSpace=wrap;html=1;aspect=fixed;fontSize=11;" vertex="1" parent="1">
          <mxGeometry x="330" y="200" width="60" height="60" as="geometry" />
        </mxCell>
        <mxCell id="lA_nZtJsFJba0ltW-i-2-17" value="" style="shape=partialRectangle;whiteSpace=wrap;html=1;bottom=1;right=1;left=1;top=0;fillColor=none;routingCenterX=-0.5;rotation=-90;" vertex="1" parent="1">
          <mxGeometry x="237.5" y="217.5" width="50" height="25" as="geometry" />
        </mxCell>
        <mxCell id="lA_nZtJsFJba0ltW-i-2-18" value="" style="endArrow=classic;html=1;rounded=0;entryX=0;entryY=0.5;entryDx=0;entryDy=0;exitX=0.5;exitY=1;exitDx=0;exitDy=0;" edge="1" parent="1" source="lA_nZtJsFJba0ltW-i-2-17" target="lA_nZtJsFJba0ltW-i-2-16">
          <mxGeometry width="50" height="50" relative="1" as="geometry">
            <mxPoint x="280" y="242.5" as="sourcePoint" />
            <mxPoint x="330" y="192.5" as="targetPoint" />
          </mxGeometry>
        </mxCell>
        <mxCell id="lA_nZtJsFJba0ltW-i-2-19" value="&lt;span style=&quot;font-size: 11px;&quot;&gt;Trạm&amp;nbsp;&lt;/span&gt;" style="rounded=1;whiteSpace=wrap;html=1;fillColor=#d80073;strokeColor=#A50040;fontColor=#ffffff;" vertex="1" parent="1">
          <mxGeometry x="147.5" y="290" width="95" height="30" as="geometry" />
        </mxCell>
        <mxCell id="lA_nZtJsFJba0ltW-i-2-22" value="" style="edgeStyle=segmentEdgeStyle;endArrow=classic;html=1;curved=0;rounded=0;endSize=8;startSize=8;entryX=1;entryY=0.75;entryDx=0;entryDy=0;exitX=0.5;exitY=1;exitDx=0;exitDy=0;" edge="1" parent="1" source="lA_nZtJsFJba0ltW-i-2-16" target="lA_nZtJsFJba0ltW-i-2-19">
          <mxGeometry width="50" height="50" relative="1" as="geometry">
            <mxPoint x="300" y="310" as="sourcePoint" />
            <mxPoint x="350" y="260" as="targetPoint" />
            <Array as="points">
              <mxPoint x="360" y="310" />
              <mxPoint x="250" y="310" />
              <mxPoint x="250" y="313" />
            </Array>
          </mxGeometry>
        </mxCell>
        <mxCell id="lA_nZtJsFJba0ltW-i-2-23" value="" style="shape=actor;whiteSpace=wrap;html=1;fillColor=#e1d5e7;strokeColor=#9673a6;" vertex="1" parent="1">
          <mxGeometry x="50" y="320" width="30" height="50" as="geometry" />
        </mxCell>
        <mxCell id="lA_nZtJsFJba0ltW-i-2-24" value="" style="shape=actor;whiteSpace=wrap;html=1;fillColor=#d5e8d4;strokeColor=#82b366;" vertex="1" parent="1">
          <mxGeometry x="50" y="220" width="30" height="50" as="geometry" />
        </mxCell>
        <mxCell id="lA_nZtJsFJba0ltW-i-2-25" value="" style="shape=actor;whiteSpace=wrap;html=1;fillColor=#fff2cc;strokeColor=#d6b656;" vertex="1" parent="1">
          <mxGeometry x="50" y="510" width="30" height="50" as="geometry" />
        </mxCell>
        <mxCell id="lA_nZtJsFJba0ltW-i-2-26" value="Database bình nước" style="ellipse;whiteSpace=wrap;html=1;aspect=fixed;fontSize=11;" vertex="1" parent="1">
          <mxGeometry x="430" y="325" width="60" height="60" as="geometry" />
        </mxCell>
        <mxCell id="lA_nZtJsFJba0ltW-i-2-27" value="" style="endArrow=classic;html=1;rounded=0;entryX=0.033;entryY=0.317;entryDx=0;entryDy=0;exitX=1;exitY=0.25;exitDx=0;exitDy=0;entryPerimeter=0;" edge="1" parent="1" source="lA_nZtJsFJba0ltW-i-2-14" target="lA_nZtJsFJba0ltW-i-2-26">
          <mxGeometry width="50" height="50" relative="1" as="geometry">
            <mxPoint x="340" y="375" as="sourcePoint" />
            <mxPoint x="390" y="325" as="targetPoint" />
          </mxGeometry>
        </mxCell>
        <mxCell id="lA_nZtJsFJba0ltW-i-2-28" value="Database loại nước" style="ellipse;whiteSpace=wrap;html=1;aspect=fixed;fontSize=11;" vertex="1" parent="1">
          <mxGeometry x="430" y="530" width="60" height="60" as="geometry" />
        </mxCell>
        <mxCell id="lA_nZtJsFJba0ltW-i-2-29" value="" style="endArrow=classic;html=1;rounded=0;exitX=1;exitY=0.5;exitDx=0;exitDy=0;entryX=0.033;entryY=0.383;entryDx=0;entryDy=0;entryPerimeter=0;" edge="1" parent="1" target="lA_nZtJsFJba0ltW-i-2-28">
          <mxGeometry width="50" height="50" relative="1" as="geometry">
            <mxPoint x="231" y="554.5" as="sourcePoint" />
            <mxPoint x="440" y="560" as="targetPoint" />
          </mxGeometry>
        </mxCell>
        <mxCell id="lA_nZtJsFJba0ltW-i-2-31" value="Nơi rửa bình" style="rounded=0;whiteSpace=wrap;html=1;fillColor=#1ba1e2;fontColor=#ffffff;strokeColor=#006EAF;" vertex="1" parent="1">
          <mxGeometry x="420" y="410" width="80" height="30" as="geometry" />
        </mxCell>
        <mxCell id="lA_nZtJsFJba0ltW-i-2-32" value="" style="endArrow=classic;html=1;rounded=0;entryX=0.5;entryY=0;entryDx=0;entryDy=0;exitX=0.5;exitY=1;exitDx=0;exitDy=0;" edge="1" parent="1" source="lA_nZtJsFJba0ltW-i-2-26" target="lA_nZtJsFJba0ltW-i-2-31">
          <mxGeometry width="50" height="50" relative="1" as="geometry">
            <mxPoint x="380" y="420" as="sourcePoint" />
            <mxPoint x="430" y="370" as="targetPoint" />
          </mxGeometry>
        </mxCell>
        <mxCell id="lA_nZtJsFJba0ltW-i-2-33" value="Thùng chứa nước" style="rounded=0;whiteSpace=wrap;html=1;fillColor=#6a00ff;fontColor=#ffffff;strokeColor=#3700CC;" vertex="1" parent="1">
          <mxGeometry x="575" y="270" width="80" height="30" as="geometry" />
        </mxCell>
        <mxCell id="lA_nZtJsFJba0ltW-i-2-37" value="" style="edgeStyle=elbowEdgeStyle;elbow=horizontal;endArrow=classic;html=1;curved=0;rounded=0;endSize=8;startSize=8;entryX=0;entryY=0.5;entryDx=0;entryDy=0;" edge="1" parent="1" target="lA_nZtJsFJba0ltW-i-2-33">
          <mxGeometry width="50" height="50" relative="1" as="geometry">
            <mxPoint x="500" y="420" as="sourcePoint" />
            <mxPoint x="550" y="370" as="targetPoint" />
            <Array as="points">
              <mxPoint x="520" y="230" />
            </Array>
          </mxGeometry>
        </mxCell>
        <mxCell id="lA_nZtJsFJba0ltW-i-2-40" value="" style="edgeStyle=elbowEdgeStyle;elbow=horizontal;endArrow=classic;html=1;curved=0;rounded=0;endSize=8;startSize=8;entryX=0;entryY=0.5;entryDx=0;entryDy=0;exitX=0.983;exitY=0.367;exitDx=0;exitDy=0;exitPerimeter=0;" edge="1" parent="1" source="lA_nZtJsFJba0ltW-i-2-28" target="lA_nZtJsFJba0ltW-i-2-33">
          <mxGeometry width="50" height="50" relative="1" as="geometry">
            <mxPoint x="490" y="565" as="sourcePoint" />
            <mxPoint x="565" y="360" as="targetPoint" />
            <Array as="points">
              <mxPoint x="550" y="390" />
            </Array>
          </mxGeometry>
        </mxCell>
        <mxCell id="lA_nZtJsFJba0ltW-i-2-43" value="Module đóng nắp chai" style="rounded=0;whiteSpace=wrap;html=1;fillColor=#a20025;fontColor=#ffffff;strokeColor=#6F0000;" vertex="1" parent="1">
          <mxGeometry x="575" y="330" width="80" height="30" as="geometry" />
        </mxCell>
        <mxCell id="lA_nZtJsFJba0ltW-i-2-44" value="" style="endArrow=classic;html=1;rounded=0;entryX=0.5;entryY=0;entryDx=0;entryDy=0;exitX=0.5;exitY=1;exitDx=0;exitDy=0;" edge="1" parent="1" source="lA_nZtJsFJba0ltW-i-2-33" target="lA_nZtJsFJba0ltW-i-2-43">
          <mxGeometry width="50" height="50" relative="1" as="geometry">
            <mxPoint x="622.5" y="220" as="sourcePoint" />
            <mxPoint x="607.5" y="302.5" as="targetPoint" />
          </mxGeometry>
        </mxCell>
        <mxCell id="lA_nZtJsFJba0ltW-i-2-47" value="Nơi nhận nước và bình Output 2" style="rounded=0;whiteSpace=wrap;html=1;fillColor=#0050ef;fontColor=#ffffff;strokeColor=#001DBC;" vertex="1" parent="1">
          <mxGeometry x="575" y="410" width="80" height="80" as="geometry" />
        </mxCell>
        <mxCell id="lA_nZtJsFJba0ltW-i-2-48" value="" style="endArrow=classic;html=1;rounded=0;entryX=0.5;entryY=0;entryDx=0;entryDy=0;exitX=0.5;exitY=1;exitDx=0;exitDy=0;" edge="1" parent="1" source="lA_nZtJsFJba0ltW-i-2-43" target="lA_nZtJsFJba0ltW-i-2-47">
          <mxGeometry width="50" height="50" relative="1" as="geometry">
            <mxPoint x="680" y="340" as="sourcePoint" />
            <mxPoint x="685.7142857142858" y="260" as="targetPoint" />
          </mxGeometry>
        </mxCell>
        <mxCell id="lA_nZtJsFJba0ltW-i-2-50" value="" style="endArrow=classic;html=1;rounded=0;exitX=0.5;exitY=0;exitDx=0;exitDy=0;entryX=0.5;entryY=1;entryDx=0;entryDy=0;" edge="1" parent="1" source="lA_nZtJsFJba0ltW-i-2-14" target="lA_nZtJsFJba0ltW-i-2-19">
          <mxGeometry width="50" height="50" relative="1" as="geometry">
            <mxPoint x="200" y="350" as="sourcePoint" />
            <mxPoint x="218.75" y="320" as="targetPoint" />
          </mxGeometry>
        </mxCell>
        <mxCell id="lA_nZtJsFJba0ltW-i-2-53" value="Database Marketing" style="ellipse;whiteSpace=wrap;html=1;aspect=fixed;fontSize=11;" vertex="1" parent="1">
          <mxGeometry x="810" y="185" width="60" height="60" as="geometry" />
        </mxCell>
        <mxCell id="lA_nZtJsFJba0ltW-i-2-54" value="" style="shape=actor;whiteSpace=wrap;html=1;" vertex="1" parent="1">
          <mxGeometry x="885" y="190" width="40" height="60" as="geometry" />
        </mxCell>
        <mxCell id="lA_nZtJsFJba0ltW-i-2-55" value="" style="shape=actor;whiteSpace=wrap;html=1;" vertex="1" parent="1">
          <mxGeometry x="760" y="190" width="40" height="60" as="geometry" />
        </mxCell>
        <mxCell id="lA_nZtJsFJba0ltW-i-2-56" value="Khách hàng mục tiêu" style="text;html=1;align=center;verticalAlign=middle;whiteSpace=wrap;rounded=0;" vertex="1" parent="1">
          <mxGeometry x="765" y="245" width="150" height="30" as="geometry" />
        </mxCell>
        <mxCell id="lA_nZtJsFJba0ltW-i-2-57" value="Input từ người dùng" style="ellipse;whiteSpace=wrap;html=1;fillColor=#1ba1e2;fontColor=#ffffff;strokeColor=#006EAF;" vertex="1" parent="1">
          <mxGeometry x="570" y="190" width="90" height="70" as="geometry" />
        </mxCell>
        <mxCell id="lA_nZtJsFJba0ltW-i-2-59" value="" style="edgeStyle=elbowEdgeStyle;elbow=horizontal;endArrow=classic;html=1;curved=0;rounded=0;endSize=8;startSize=8;entryX=1;entryY=0.75;entryDx=0;entryDy=0;" edge="1" parent="1" target="lA_nZtJsFJba0ltW-i-2-14">
          <mxGeometry width="50" height="50" relative="1" as="geometry">
            <mxPoint x="569.38" y="220" as="sourcePoint" />
            <mxPoint x="240.63" y="357.5" as="targetPoint" />
          </mxGeometry>
        </mxCell>
        <mxCell id="lA_nZtJsFJba0ltW-i-2-61" value="" style="shape=partialRectangle;whiteSpace=wrap;html=1;bottom=1;right=1;left=1;top=0;fillColor=none;routingCenterX=-0.5;rotation=-90;" vertex="1" parent="1">
          <mxGeometry x="575" y="305" width="240" height="70" as="geometry" />
        </mxCell>
        <mxCell id="lA_nZtJsFJba0ltW-i-2-62" value="" style="edgeStyle=segmentEdgeStyle;endArrow=classic;html=1;curved=0;rounded=0;endSize=8;startSize=8;entryX=0.5;entryY=0;entryDx=0;entryDy=0;" edge="1" parent="1" target="lA_nZtJsFJba0ltW-i-2-56">
          <mxGeometry width="50" height="50" relative="1" as="geometry">
            <mxPoint x="730" y="370" as="sourcePoint" />
            <mxPoint x="780" y="320" as="targetPoint" />
            <Array as="points">
              <mxPoint x="820" y="370" />
              <mxPoint x="820" y="245" />
            </Array>
          </mxGeometry>
        </mxCell>
        <mxCell id="lA_nZtJsFJba0ltW-i-2-65" value="" style="endArrow=classic;startArrow=classic;html=1;rounded=0;exitX=1;exitY=0.75;exitDx=0;exitDy=0;entryX=0;entryY=0.75;entryDx=0;entryDy=0;" edge="1" parent="1" source="lA_nZtJsFJba0ltW-i-2-55" target="lA_nZtJsFJba0ltW-i-2-54">
          <mxGeometry width="50" height="50" relative="1" as="geometry">
            <mxPoint x="840" y="267.5" as="sourcePoint" />
            <mxPoint x="890" y="217.5" as="targetPoint" />
          </mxGeometry>
        </mxCell>
        <mxCell id="lA_nZtJsFJba0ltW-i-2-67" value="Saleperson" style="shape=umlActor;verticalLabelPosition=bottom;verticalAlign=top;html=1;outlineConnect=0;fillColor=#008a00;fontColor=#000000;strokeColor=#005700;fontSize=10;" vertex="1" parent="1">
          <mxGeometry x="850" y="310" width="30" height="60" as="geometry" />
        </mxCell>
        <mxCell id="lA_nZtJsFJba0ltW-i-2-68" value="" style="endArrow=classic;html=1;rounded=0;entryX=0.5;entryY=0;entryDx=0;entryDy=0;entryPerimeter=0;" edge="1" parent="1" target="lA_nZtJsFJba0ltW-i-2-67">
          <mxGeometry width="50" height="50" relative="1" as="geometry">
            <mxPoint x="865" y="230" as="sourcePoint" />
            <mxPoint x="860" y="300" as="targetPoint" />
          </mxGeometry>
        </mxCell>
        <mxCell id="lA_nZtJsFJba0ltW-i-2-69" value="" style="shape=actor;whiteSpace=wrap;html=1;" vertex="1" parent="1">
          <mxGeometry x="1160" y="315" width="40" height="60" as="geometry" />
        </mxCell>
        <mxCell id="lA_nZtJsFJba0ltW-i-2-70" value="" style="edgeStyle=segmentEdgeStyle;endArrow=classic;html=1;curved=0;rounded=0;endSize=8;startSize=8;" edge="1" parent="1">
          <mxGeometry width="50" height="50" relative="1" as="geometry">
            <mxPoint x="870" y="390" as="sourcePoint" />
            <mxPoint x="1180" y="380" as="targetPoint" />
            <Array as="points">
              <mxPoint x="870" y="425" />
              <mxPoint x="1180" y="425" />
            </Array>
          </mxGeometry>
        </mxCell>
        <mxCell id="lA_nZtJsFJba0ltW-i-2-71" value="" style="endArrow=classic;html=1;rounded=0;exitX=0.1;exitY=0.5;exitDx=0;exitDy=0;exitPerimeter=0;" edge="1" parent="1" source="lA_nZtJsFJba0ltW-i-2-69" target="lA_nZtJsFJba0ltW-i-2-67">
          <mxGeometry width="50" height="50" relative="1" as="geometry">
            <mxPoint x="990" y="370" as="sourcePoint" />
            <mxPoint x="1040" y="320" as="targetPoint" />
            <Array as="points">
              <mxPoint x="950" y="340" />
              <mxPoint x="880" y="340" />
            </Array>
          </mxGeometry>
        </mxCell>
        <mxCell id="lA_nZtJsFJba0ltW-i-2-72" value="Pitching" style="text;html=1;align=center;verticalAlign=middle;whiteSpace=wrap;rounded=0;rotation=0;" vertex="1" parent="1">
          <mxGeometry x="960" y="400" width="60" height="30" as="geometry" />
        </mxCell>
        <mxCell id="lA_nZtJsFJba0ltW-i-2-73" value="Confirm" style="text;html=1;align=center;verticalAlign=middle;whiteSpace=wrap;rounded=0;rotation=0;" vertex="1" parent="1">
          <mxGeometry x="960" y="315" width="60" height="30" as="geometry" />
        </mxCell>
        <mxCell id="lA_nZtJsFJba0ltW-i-2-74" value="Social Media" style="swimlane;whiteSpace=wrap;html=1;" vertex="1" parent="1">
          <mxGeometry x="765" y="400" width="95" height="60" as="geometry">
            <mxRectangle x="765" y="400" width="110" height="30" as="alternateBounds" />
          </mxGeometry>
        </mxCell>
        <mxCell id="lA_nZtJsFJba0ltW-i-2-75" value="" style="endArrow=classic;html=1;rounded=0;entryX=0.75;entryY=0;entryDx=0;entryDy=0;exitX=0.5;exitY=1;exitDx=0;exitDy=0;" edge="1" parent="1" source="lA_nZtJsFJba0ltW-i-2-53" target="lA_nZtJsFJba0ltW-i-2-74">
          <mxGeometry width="50" height="50" relative="1" as="geometry">
            <mxPoint x="840" y="250" as="sourcePoint" />
            <mxPoint x="839.5" y="322.5" as="targetPoint" />
          </mxGeometry>
        </mxCell>
        <mxCell id="lA_nZtJsFJba0ltW-i-2-76" value="" style="edgeStyle=segmentEdgeStyle;endArrow=classic;html=1;curved=0;rounded=0;endSize=8;startSize=8;exitX=0.5;exitY=1;exitDx=0;exitDy=0;" edge="1" parent="1" source="lA_nZtJsFJba0ltW-i-2-74">
          <mxGeometry width="50" height="50" relative="1" as="geometry">
            <mxPoint x="827" y="460" as="sourcePoint" />
            <mxPoint x="1180" y="420" as="targetPoint" />
            <Array as="points">
              <mxPoint x="800" y="460" />
              <mxPoint x="800" y="480" />
              <mxPoint x="1180" y="480" />
            </Array>
          </mxGeometry>
        </mxCell>
        <mxCell id="lA_nZtJsFJba0ltW-i-2-79" value="" style="edgeStyle=segmentEdgeStyle;endArrow=classic;html=1;curved=0;rounded=0;endSize=8;startSize=8;entryX=1;entryY=0.5;entryDx=0;entryDy=0;" edge="1" parent="1" target="lA_nZtJsFJba0ltW-i-2-53">
          <mxGeometry width="50" height="50" relative="1" as="geometry">
            <mxPoint x="1180" y="310" as="sourcePoint" />
            <mxPoint x="950" y="80" as="targetPoint" />
            <Array as="points">
              <mxPoint x="1180" y="215" />
            </Array>
          </mxGeometry>
        </mxCell>
        <mxCell id="lA_nZtJsFJba0ltW-i-2-80" value="Feedback" style="text;html=1;align=center;verticalAlign=middle;whiteSpace=wrap;rounded=0;rotation=0;" vertex="1" parent="1">
          <mxGeometry x="979.5" y="190" width="60" height="30" as="geometry" />
        </mxCell>
        <mxCell id="lA_nZtJsFJba0ltW-i-2-82" value="" style="edgeStyle=segmentEdgeStyle;endArrow=classic;html=1;curved=0;rounded=0;endSize=8;startSize=8;" edge="1" parent="1">
          <mxGeometry width="50" height="50" relative="1" as="geometry">
            <mxPoint x="827" y="460" as="sourcePoint" />
            <mxPoint x="830" y="460" as="targetPoint" />
            <Array as="points" />
          </mxGeometry>
        </mxCell>
        <mxCell id="lA_nZtJsFJba0ltW-i-2-81" value="Advertising&lt;div&gt;&lt;br&gt;&lt;/div&gt;" style="text;html=1;align=center;verticalAlign=middle;whiteSpace=wrap;rounded=0;rotation=0;" vertex="1" parent="1">
          <mxGeometry x="979.5" y="460" width="60" height="30" as="geometry" />
        </mxCell>
        <mxCell id="lA_nZtJsFJba0ltW-i-2-84" value="Supplier" style="text;html=1;align=center;verticalAlign=middle;whiteSpace=wrap;rounded=0;" vertex="1" parent="1">
          <mxGeometry x="35" y="270" width="60" height="30" as="geometry" />
        </mxCell>
        <mxCell id="lA_nZtJsFJba0ltW-i-2-85" value="Supplier" style="text;html=1;align=center;verticalAlign=middle;whiteSpace=wrap;rounded=0;" vertex="1" parent="1">
          <mxGeometry x="30" y="375" width="60" height="30" as="geometry" />
        </mxCell>
        <mxCell id="lA_nZtJsFJba0ltW-i-2-86" value="Supplier" style="text;html=1;align=center;verticalAlign=middle;whiteSpace=wrap;rounded=0;" vertex="1" parent="1">
          <mxGeometry x="35" y="560" width="60" height="30" as="geometry" />
        </mxCell>
      </root>
    </mxGraphModel>
  </diagram>
</mxfile>
